<?xml version="1.0" encoding="UTF-8" standalone="no"?> <svg width="512" height="512" viewBox="0 0 512 512" fill="none" xmlns="http://www.w3.org/2000/svg">
<path d="M377.393 172.967L364.215 198.302L384.237 218.664C385.59 220.04 386.472 221.808 386.758 223.717C387.044 225.625 386.718 227.575 385.828 229.287C384.938 230.999 383.528 232.385 381.802 233.246C380.075 234.108 378.12 234.401 376.217 234.084L348.05 229.384L334.871 254.719C333.981 256.431 332.571 257.817 330.844 258.679C329.118 259.541 327.163 259.833 325.259 259.516C323.356 259.198 321.602 258.285 320.249 256.909C318.896 255.533 318.013 253.764 317.728 251.856L313.498 223.613L285.33 218.913C283.426 218.595 281.672 217.683 280.319 216.307C278.966 214.931 278.083 213.162 277.797 211.253C277.512 209.345 277.837 207.395 278.728 205.683C279.619 203.971 281.029 202.585 282.756 201.724L308.308 188.973L304.078 160.731C303.792 158.822 304.117 156.872 305.008 155.16C305.898 153.448 307.308 152.061 309.035 151.2C310.762 150.338 312.717 150.045 314.62 150.363C316.524 150.681 318.278 151.593 319.631 152.97L339.653 173.332L365.206 160.582C366.932 159.722 368.885 159.43 370.787 159.748C372.689 160.066 374.441 160.977 375.794 162.352C377.146 163.726 378.029 165.493 378.316 167.4C378.603 169.306 378.28 171.255 377.393 172.967V172.967Z" fill="#F7A014"/>
<path d="M334.457 444.871L316.274 453.071L318.458 472.898C318.605 474.238 318.325 475.59 317.657 476.761C316.989 477.931 315.967 478.861 314.738 479.415C313.51 479.969 312.137 480.12 310.817 479.847C309.497 479.573 308.298 478.888 307.391 477.891L293.971 463.134L275.788 471.334C274.559 471.889 273.187 472.04 271.866 471.767C270.546 471.493 269.347 470.809 268.44 469.811C267.533 468.814 266.965 467.555 266.818 466.215C266.67 464.875 266.951 463.523 267.62 462.352L277.508 445.028L264.087 430.271C263.18 429.274 262.613 428.015 262.465 426.675C262.318 425.336 262.598 423.984 263.266 422.813C263.934 421.643 264.956 420.714 266.184 420.159C267.413 419.605 268.785 419.454 270.105 419.727L289.637 423.777L299.525 406.453C300.193 405.282 301.215 404.353 302.443 403.799C303.672 403.245 305.044 403.094 306.364 403.367C307.684 403.641 308.883 404.325 309.79 405.323C310.697 406.32 311.265 407.578 311.413 408.918L313.6 428.753L333.132 432.803C334.451 433.077 335.65 433.762 336.557 434.76C337.463 435.757 338.03 437.016 338.178 438.356C338.325 439.696 338.044 441.047 337.376 442.218C336.707 443.388 335.686 444.317 334.457 444.871V444.871Z" fill="#EEB436"/>
<path d="M44.417 487.12L148.043 273.023L260.226 387.107L44.417 487.12Z" fill="#DCDBD6"/>
<path d="M219.63 345.82L107.56 356.66L126.59 317.34L185.97 311.59L219.63 345.82Z" fill="#CB2527"/>
<path d="M260.23 387.11L178.02 425.21L69.4099 435.49L88.3499 396.35L253.73 380.5L260.23 387.11Z" fill="#CB2527"/>
<path d="M263.891 40.0391L295.891 40.0033L295.945 88.0033C295.95 92.2467 294.269 96.3183 291.271 99.3222C288.274 102.326 284.206 104.016 279.963 104.021L263.963 104.039L263.891 40.0391Z" fill="#92D1F7"/>
<path d="M247.937 80.0563L263.937 80.0385L263.989 126.038C263.994 130.812 262.103 135.393 258.731 138.772C255.359 142.152 250.783 144.053 246.009 144.059L232.009 144.074L231.955 96.0742C231.95 91.8307 233.632 87.7592 236.629 84.7553C239.626 81.7513 243.694 80.0611 247.937 80.0563V80.0563Z" fill="#A6DEFF"/>
<path d="M215.982 120.092L231.982 120.074L232.053 184.074L200.053 184.109L200 136.109C199.995 131.866 201.676 127.794 204.673 124.79C207.671 121.787 211.738 120.096 215.982 120.092V120.092Z" fill="#92D1F7"/>
<path d="M409.133 296.449L409.42 280.452C409.496 276.209 411.254 272.17 414.308 269.224C417.362 266.278 421.461 264.665 425.704 264.741L473.696 265.601L473.123 297.596L409.133 296.449V296.449Z" fill="#A6DEFF"/>
<path d="M368.565 327.727L368.816 313.729C368.901 308.956 370.879 304.412 374.315 301.097C377.751 297.783 382.362 295.969 387.135 296.054L433.128 296.879L432.841 312.876C432.765 317.119 431.007 321.158 427.953 324.104C424.899 327.05 420.8 328.663 416.557 328.587L368.565 327.727Z" fill="#92D1F7"/>
<path d="M328 359.004L328.573 327.009L392.563 328.156L392.276 344.154C392.2 348.396 390.442 352.435 387.388 355.381C384.334 358.328 380.235 359.94 375.992 359.864L328 359.004Z" fill="#A6DEFF"/>
<path d="M464 184C472.837 184 480 176.837 480 168C480 159.163 472.837 152 464 152C455.163 152 448 159.163 448 168C448 176.837 455.163 184 464 184Z" fill="#89B140"/>
<path d="M93.1945 284.703L98.303 253.113L66.7134 248.005L61.6049 279.594L93.1945 284.703Z" fill="#FFC864"/>
<path d="M56.0212 143.003L86.9993 134.98L78.9768 104.002L47.9988 112.025L56.0212 143.003Z" fill="#FFC864"/>
<path d="M462.919 401.563L440.483 378.746L417.666 401.183L440.103 423.999L462.919 401.563Z" fill="#FFC864"/>
<path d="M384.003 57.5627L361.566 34.7461L338.749 57.1828L361.186 79.9993L384.003 57.5627Z" fill="#FFC864"/>
<path d="M193.2 292.719C191.613 292.718 190.061 292.246 188.743 291.361C187.425 290.477 186.4 289.22 185.798 287.751C185.197 286.282 185.045 284.667 185.364 283.112C185.683 281.557 186.457 280.132 187.588 279.019L188.567 278.056C192.947 273.773 196.434 268.664 198.826 263.024C201.219 257.385 202.469 251.327 202.505 245.202C202.523 243.092 203.374 241.074 204.872 239.589C206.37 238.103 208.395 237.269 210.505 237.27H210.574C212.696 237.287 214.723 238.147 216.211 239.66C217.698 241.173 218.524 243.215 218.506 245.337C218.459 253.564 216.781 261.701 213.569 269.275C210.356 276.85 205.673 283.712 199.791 289.465L198.815 290.426C197.318 291.9 195.301 292.724 193.2 292.719Z" fill="#FFC864"/>
<path d="M266.216 355.558C264.629 355.557 263.078 355.084 261.76 354.2C260.442 353.315 259.417 352.058 258.816 350.589C258.214 349.121 258.063 347.506 258.382 345.951C258.701 344.396 259.475 342.971 260.606 341.858C269.305 333.256 281.054 328.446 293.288 328.477H293.688L300.315 328.532C302.437 328.54 304.468 329.392 305.962 330.898C307.456 332.405 308.291 334.443 308.282 336.565C308.273 338.686 307.422 340.718 305.915 342.212C304.409 343.706 302.371 344.54 300.249 344.532H300.181L293.554 344.477H293.29C285.254 344.456 277.536 347.616 271.822 353.266C270.327 354.737 268.313 355.561 266.216 355.558Z" fill="#FFC864"/>
<path d="M278.29 265.148C276.703 265.147 275.152 264.674 273.834 263.79C272.516 262.905 271.491 261.648 270.89 260.179C270.289 258.711 270.138 257.096 270.456 255.541C270.775 253.986 271.549 252.561 272.68 251.448L284.088 240.23C285.601 238.742 287.643 237.916 289.764 237.934C291.886 237.952 293.914 238.811 295.401 240.324C296.889 241.837 297.715 243.879 297.697 246.001C297.68 248.122 296.82 250.15 295.307 251.638L283.9 262.853C282.405 264.326 280.389 265.151 278.29 265.148V265.148Z" fill="#FFC864"/>
<path d="M221.248 321.24C219.661 321.239 218.11 320.767 216.792 319.882C215.474 318.997 214.449 317.74 213.848 316.272C213.247 314.803 213.096 313.188 213.414 311.634C213.733 310.079 214.507 308.654 215.638 307.54L238.455 285.103C239.202 284.357 240.089 283.767 241.066 283.366C242.042 282.965 243.088 282.761 244.144 282.766C245.199 282.771 246.243 282.984 247.216 283.395C248.189 283.805 249.07 284.404 249.81 285.156C250.55 285.909 251.134 286.801 251.528 287.78C251.922 288.759 252.118 289.807 252.106 290.862C252.093 291.918 251.871 292.96 251.454 293.93C251.036 294.899 250.431 295.777 249.673 296.511L226.856 318.947C225.361 320.42 223.346 321.244 221.248 321.24V321.24Z" fill="#FFC864"/>
<path d="M164.729 144.142C163.36 144.142 162.014 143.789 160.82 143.119C159.626 142.45 158.623 141.484 157.909 140.316C157.195 139.148 156.792 137.817 156.74 136.448C156.687 135.08 156.987 133.722 157.61 132.502C160.602 126.608 162.188 120.1 162.243 113.49C162.299 106.88 160.823 100.346 157.93 94.4024C157.46 93.4579 157.181 92.4296 157.109 91.3769C157.038 90.3242 157.176 89.2677 157.514 88.2684C157.853 87.269 158.386 86.3465 159.083 85.5541C159.779 84.7616 160.626 84.1147 161.573 83.6508C162.521 83.1868 163.551 82.9149 164.604 82.8507C165.658 82.7866 166.713 82.9314 167.71 83.2768C168.707 83.6223 169.626 84.1615 170.414 84.8636C171.201 85.5656 171.842 86.4165 172.3 87.3674C176.279 95.5436 178.31 104.53 178.233 113.623C178.157 122.716 175.976 131.667 171.86 139.775C171.19 141.09 170.169 142.194 168.91 142.965C167.652 143.735 166.205 144.143 164.729 144.142V144.142Z" fill="#FFC864"/>
<path d="M368 408.26C366.138 408.262 364.334 407.614 362.898 406.428C361.463 405.243 360.486 403.594 360.135 401.766C359.785 399.937 360.083 398.044 360.979 396.411C361.875 394.779 363.311 393.511 365.042 392.824L369.396 391.093C373.702 389.367 378.308 388.512 382.947 388.578C387.586 388.644 392.166 389.629 396.422 391.477C398.358 392.325 399.88 393.905 400.655 395.871C401.43 397.837 401.395 400.03 400.559 401.971C399.722 403.912 398.151 405.443 396.19 406.23C394.228 407.017 392.035 406.995 390.089 406.17C387.762 405.159 385.257 404.62 382.72 404.584C380.183 404.548 377.664 405.015 375.309 405.96L370.954 407.691C370.014 408.066 369.012 408.259 368 408.26V408.26Z" fill="#FFC864"/>
<path d="M160 248.003C157.878 248.003 155.843 247.16 154.343 245.66C152.843 244.159 152 242.125 152 240.003V237.26C151.986 231.595 150.849 225.988 148.656 220.764C146.463 215.541 143.258 210.803 139.224 206.825C137.709 205.339 136.847 203.312 136.827 201.19C136.807 199.068 137.63 197.025 139.116 195.511C140.602 193.996 142.629 193.134 144.751 193.114C146.872 193.093 148.915 193.917 150.43 195.403C155.978 200.873 160.387 207.389 163.403 214.573C166.419 221.758 167.981 229.468 168 237.26V240.003C168 242.125 167.157 244.159 165.657 245.66C164.157 247.16 162.122 248.003 160 248.003Z" fill="#FFC864"/>
<path d="M255.282 325.494C268.14 325.494 278.564 315.07 278.564 302.212C278.564 289.353 268.14 278.93 255.282 278.93C242.424 278.93 232 289.353 232 302.212C232 315.07 242.424 325.494 255.282 325.494Z" fill="#5EBEF7"/>
<path d="M159.601 89.8672C168.438 89.8672 175.601 82.7037 175.601 73.8672C175.601 65.0306 168.438 57.8672 159.601 57.8672C150.764 57.8672 143.601 65.0306 143.601 73.8672C143.601 82.7037 150.764 89.8672 159.601 89.8672Z" fill="#FAA6B2"/>
<path d="M128 208C141.255 208 152 197.255 152 184C152 170.745 141.255 160 128 160C114.745 160 104 170.745 104 184C104 197.255 114.745 208 128 208Z" fill="#89B140"/>
<path d="M323.942 267.403C324.919 267.567 325.908 267.649 326.899 267.65C330.021 267.658 333.083 266.798 335.744 265.166C338.406 263.534 340.561 261.194 341.969 258.408L352.469 238.231L374.904 241.977C378.474 242.573 382.14 242.023 385.378 240.407C388.617 238.791 391.26 236.192 392.93 232.981C394.6 229.77 395.211 226.113 394.675 222.534C394.139 218.955 392.483 215.637 389.946 213.057L373.999 196.839L384.499 176.66C386.169 173.449 386.78 169.792 386.244 166.213C385.708 162.634 384.052 159.316 381.515 156.735C378.977 154.155 375.688 152.444 372.118 151.848C368.548 151.252 364.881 151.802 361.643 153.418L341.291 163.573L325.344 147.357C322.807 144.776 319.517 143.065 315.948 142.469C312.378 141.872 308.711 142.421 305.473 144.037C302.235 145.653 299.591 148.252 297.921 151.463C296.251 154.674 295.64 158.331 296.176 161.91L299.545 184.403L279.193 194.56C275.954 196.176 273.31 198.775 271.64 201.986C269.97 205.197 269.359 208.854 269.895 212.433C270.431 216.013 272.087 219.33 274.625 221.911C277.162 224.491 280.452 226.202 284.022 226.798L306.456 230.545L309.825 253.039C310.323 256.632 311.964 259.969 314.507 262.556C317.05 265.144 320.358 266.843 323.942 267.403ZM286.648 211.017C286.411 210.977 286.192 210.864 286.024 210.692C285.855 210.521 285.745 210.3 285.71 210.063C285.674 209.825 285.715 209.582 285.826 209.369C285.937 209.156 286.113 208.983 286.328 208.876L311.88 196.125C313.392 195.371 314.626 194.157 315.406 192.658C316.185 191.159 316.47 189.452 316.22 187.781L311.99 159.54C311.926 159.301 311.954 159.047 312.068 158.827C312.182 158.608 312.375 158.439 312.607 158.354C312.784 158.258 312.981 158.205 313.182 158.199C313.325 158.205 313.466 158.242 313.594 158.307C313.723 158.371 313.836 158.462 313.927 158.574L333.949 178.936C335.134 180.14 336.669 180.939 338.335 181.217C340.002 181.495 341.713 181.238 343.225 180.484L368.778 167.734C368.993 167.627 369.236 167.59 369.473 167.63C369.71 167.669 369.929 167.783 370.097 167.954C370.266 168.125 370.376 168.346 370.412 168.583C370.447 168.821 370.407 169.064 370.296 169.277L357.118 194.612C356.338 196.111 356.053 197.818 356.304 199.488C356.554 201.159 357.327 202.707 358.511 203.912L378.533 224.274C378.701 224.445 378.811 224.666 378.847 224.904C378.882 225.141 378.842 225.384 378.731 225.597C378.62 225.811 378.444 225.983 378.229 226.09C378.014 226.197 377.77 226.234 377.533 226.194L349.365 221.494C347.698 221.214 345.986 221.469 344.474 222.224C342.962 222.979 341.728 224.194 340.95 225.694L327.772 251.028C327.661 251.241 327.486 251.414 327.271 251.521C327.056 251.628 326.812 251.665 326.575 251.625C326.338 251.586 326.12 251.472 325.951 251.301C325.783 251.13 325.673 250.91 325.637 250.672L321.407 222.43C321.157 220.759 320.384 219.21 319.199 218.006C318.015 216.801 316.479 216.002 314.813 215.724L286.648 211.017Z" fill="black"/>
<path d="M334.752 424.968L320.912 422.097L319.365 408.046C319.032 405.027 317.753 402.191 315.709 399.944C313.665 397.697 310.963 396.155 307.989 395.538C305.015 394.921 301.922 395.262 299.153 396.511C296.385 397.76 294.083 399.854 292.577 402.491L285.57 414.769L271.729 411.9C268.755 411.284 265.662 411.625 262.893 412.874C260.125 414.124 257.823 416.218 256.317 418.856C254.812 421.494 254.18 424.541 254.512 427.56C254.845 430.579 256.124 433.415 258.168 435.662L267.679 446.119L260.671 458.395C259.166 461.034 258.535 464.08 258.867 467.099C259.2 470.118 260.48 472.954 262.523 475.201C264.567 477.448 267.269 478.99 270.243 479.607C273.217 480.224 276.309 479.884 279.078 478.636L291.963 472.822L301.473 483.279C303.517 485.525 306.219 487.068 309.193 487.684C312.167 488.301 315.26 487.96 318.028 486.711C320.797 485.462 323.099 483.369 324.605 480.731C326.11 478.093 326.742 475.047 326.41 472.028L324.863 457.978L337.747 452.164C340.515 450.915 342.817 448.821 344.322 446.182C345.827 443.544 346.458 440.497 346.125 437.478C345.792 434.459 344.512 431.623 342.468 429.376C340.424 427.13 337.721 425.588 334.747 424.972L334.752 424.968ZM312.984 445.779C311.444 446.474 310.163 447.639 309.326 449.106C308.488 450.573 308.137 452.268 308.322 453.947L309.961 468.827L299.889 457.753C298.752 456.503 297.249 455.645 295.595 455.302C293.941 454.959 292.221 455.149 290.681 455.843L277.035 462L284.456 449C285.294 447.533 285.645 445.838 285.46 444.159C285.275 442.479 284.563 440.901 283.426 439.651L273.354 428.576L288.012 431.616C289.666 431.961 291.387 431.772 292.927 431.077C294.467 430.383 295.747 429.218 296.584 427.749L304.005 414.749L305.644 429.631C305.829 431.31 306.541 432.887 307.678 434.137C308.815 435.387 310.318 436.245 311.972 436.588L326.63 439.628L312.984 445.779Z" fill="black"/>
<path d="M268.1 388.54C268.329 387.278 268.252 385.98 267.875 384.755C267.498 383.53 266.832 382.413 265.933 381.499L259.433 374.893L259.364 374.823L153.748 267.415C152.849 266.502 151.744 265.818 150.526 265.421C149.308 265.024 148.012 264.925 146.748 265.134C145.483 265.342 144.287 265.851 143.261 266.617C142.234 267.384 141.407 268.386 140.848 269.539L37.2169 483.637C36.4981 485.122 36.2561 486.793 36.524 488.421C36.7919 490.049 37.5566 491.554 38.7134 492.731C39.8702 493.907 41.3624 494.697 42.9857 494.993C44.609 495.288 46.2839 495.074 47.7809 494.381L263.589 394.367C264.753 393.828 265.77 393.018 266.555 392.004C267.34 390.989 267.87 389.801 268.1 388.54V388.54ZM175.875 417.382L82.7379 426.312L93.5889 403.894L234.033 390.429L175.875 417.382ZM131.837 324.872L182.944 319.926L202.165 339.474L120.965 347.332L131.837 324.872ZM112.8 364.196L216.6 354.152L236.257 374.142L101.749 387.042L112.8 364.196ZM150.3 286.728L168.511 305.248L140 308.007L150.3 286.728ZM74.5799 443.169L132.144 437.649L61.3769 470.449L74.5799 443.169Z" fill="black"/>
<path d="M192 136.116L192.054 184.116C192.056 186.236 192.9 188.269 194.4 189.767C195.9 191.265 197.934 192.107 200.054 192.107H200.063L232.063 192.071C233.114 192.07 234.154 191.862 235.124 191.459C236.094 191.055 236.975 190.465 237.717 189.721C238.459 188.978 239.048 188.095 239.448 187.124C239.849 186.153 240.055 185.113 240.054 184.062L240.018 152.062L246.018 152.056C249.432 152.052 252.813 151.376 255.966 150.066C259.119 148.756 261.983 146.837 264.394 144.42C266.806 142.003 268.718 139.135 270.021 135.979C271.324 132.823 271.993 129.441 271.989 126.027L271.973 112.027L279.973 112.018C283.125 112.014 286.245 111.39 289.155 110.181C292.066 108.971 294.71 107.201 296.936 104.969C299.162 102.738 300.927 100.091 302.129 97.1775C303.332 94.2643 303.95 91.1427 303.946 87.991L303.893 39.991C303.891 37.8708 303.047 35.8383 301.547 34.34C300.047 32.8416 298.013 32 295.893 32H295.883L263.883 32.036C261.761 32.0386 259.728 32.8839 258.229 34.3859C256.731 35.8878 255.891 37.9234 255.893 40.045L255.928 72.045L247.928 72.054C241.563 72.0612 235.461 74.5965 230.966 79.1022C226.47 83.6079 223.948 89.715 223.955 96.08L223.973 112.08L215.973 112.089C209.61 112.103 203.513 114.641 199.018 119.145C194.524 123.65 192 129.753 192 136.116ZM287.9 48.009L287.945 88.009C287.946 89.0596 287.74 90.1001 287.339 91.0712C286.939 92.0422 286.35 92.9248 285.608 93.6685C284.866 94.4122 283.985 95.0025 283.015 95.4056C282.045 95.8087 281.005 96.0168 279.954 96.018L271.954 96.026L271.899 48.026L287.9 48.009ZM242.292 90.4C243.032 89.6541 243.913 89.0624 244.884 88.6591C245.854 88.2559 246.895 88.0492 247.946 88.051L255.946 88.042L255.989 126.042C255.991 127.355 255.734 128.656 255.233 129.871C254.732 131.085 253.997 132.188 253.069 133.118C252.141 134.048 251.04 134.786 249.827 135.29C248.614 135.794 247.313 136.055 246 136.056L240 136.062L239.955 96.062C239.951 95.0106 240.155 93.9688 240.556 92.9969C240.958 92.0251 241.547 91.1424 242.292 90.4V90.4ZM223.992 128.077L224.046 176.077L208.046 176.096L208.001 136.096C208.001 133.975 208.842 131.941 210.34 130.439C211.838 128.938 213.871 128.092 215.992 128.087L223.992 128.077Z" fill="black"/>
<path d="M473.841 257.603L425.849 256.742C425.703 256.742 425.559 256.742 425.413 256.742C419.125 256.751 413.092 259.224 408.607 263.631C404.122 268.037 401.543 274.026 401.423 280.312L401.279 288.312L387.279 288.061C380.388 287.948 373.733 290.572 368.773 295.358C363.812 300.143 360.952 306.7 360.818 313.591L360.71 319.591L328.71 319.017C326.589 318.979 324.539 319.785 323.012 321.258C321.485 322.732 320.606 324.751 320.568 326.872L319.994 358.872C319.959 360.993 320.767 363.041 322.242 364.565C323.716 366.09 325.735 366.967 327.856 367.003L375.849 367.863C375.995 367.863 376.139 367.863 376.285 367.863C382.572 367.854 388.606 365.381 393.091 360.975C397.576 356.568 400.155 350.579 400.275 344.293L400.418 336.293L416.418 336.58C416.566 336.58 416.718 336.58 416.861 336.58C423.149 336.577 429.185 334.105 433.67 329.698C438.155 325.29 440.731 319.298 440.844 313.011L440.988 305.011L472.982 305.585H473.126C475.223 305.586 477.237 304.762 478.733 303.293C480.229 301.823 481.088 299.825 481.126 297.728L481.699 265.728C481.737 263.607 480.931 261.557 479.458 260.03C477.985 258.504 475.965 257.624 473.844 257.586L473.841 257.603ZM384.278 344.011C384.238 346.107 383.378 348.104 381.882 349.573C380.386 351.042 378.374 351.866 376.278 351.868H376.133L336.139 351.151L336.426 335.151L384.418 336.012L384.278 344.011ZM424.845 312.733C424.829 313.784 424.605 314.822 424.185 315.785C423.766 316.749 423.159 317.62 422.401 318.348C420.869 319.814 418.821 320.619 416.701 320.588L376.707 319.871L376.815 313.871C376.835 312.557 377.115 311.26 377.638 310.055C378.161 308.849 378.917 307.759 379.862 306.846C380.808 305.934 381.925 305.217 383.148 304.738C384.372 304.258 385.678 304.025 386.992 304.052L424.986 304.733L424.845 312.733ZM465.269 289.454L417.276 288.593L417.42 280.593C417.438 279.543 417.663 278.506 418.082 277.542C418.501 276.579 419.106 275.707 419.862 274.978C420.619 274.248 421.511 273.675 422.489 273.291C423.467 272.906 424.511 272.719 425.562 272.738L465.556 273.455L465.269 289.454Z" fill="black"/>
<path d="M142.489 90.7014C144.699 92.9499 147.331 94.7392 150.235 95.9665C153.139 97.1937 156.257 97.8347 159.409 97.8524C161.544 103.434 162.487 109.402 162.177 115.37C161.867 121.338 160.311 127.176 157.609 132.506C157.123 133.443 156.827 134.466 156.738 135.518C156.649 136.569 156.769 137.628 157.09 138.633C157.412 139.637 157.93 140.569 158.613 141.373C159.296 142.177 160.132 142.838 161.072 143.318C162.011 143.797 163.037 144.086 164.089 144.168C165.141 144.25 166.199 144.123 167.201 143.794C168.204 143.466 169.132 142.942 169.931 142.253C170.73 141.564 171.386 140.724 171.859 139.781C175.532 132.535 177.667 124.608 178.128 116.497C178.59 108.386 177.368 100.267 174.541 92.6514C178.339 89.629 181.132 85.5258 182.55 80.8835C183.969 76.2411 183.946 71.2778 182.485 66.6487C181.024 62.0195 178.194 57.9421 174.368 54.9547C170.542 51.9672 165.9 50.2102 161.055 49.9154C156.21 49.6206 151.389 50.802 147.229 53.3036C143.069 55.8052 139.766 59.5095 137.755 63.9274C135.743 68.3453 135.119 73.2693 135.964 78.0493C136.809 82.8294 139.084 87.2408 142.488 90.7014H142.489ZM153.989 68.1694C155.308 66.8711 157.037 66.0707 158.881 65.9044C160.725 65.7381 162.569 66.2162 164.099 67.2574C165.63 68.2985 166.752 69.8382 167.274 71.6141C167.797 73.3899 167.687 75.2919 166.964 76.996C166.242 78.7002 164.95 80.1009 163.31 80.9594C161.67 81.818 159.783 82.0813 157.971 81.7045C156.159 81.3277 154.533 80.334 153.371 78.8929C152.21 77.4518 151.584 75.6524 151.6 73.8014C151.619 71.68 152.478 69.6527 153.99 68.1644L153.989 68.1694Z" fill="black"/>
<path d="M464.2 144H463.992C457.627 143.974 451.512 146.477 446.992 150.959C442.472 155.441 439.918 161.535 439.892 167.9C439.865 174.265 442.369 180.38 446.851 184.9C451.333 189.42 457.427 191.974 463.792 192H464C470.365 192.027 476.48 189.524 481 185.041C485.519 180.559 488.073 174.465 488.1 168.1C488.126 161.735 485.623 155.62 481.141 151.1C476.659 146.581 470.565 144.027 464.2 144V144ZM469.607 173.7C468.088 175.178 466.051 176.004 463.931 176C462.35 175.986 460.808 175.504 459.5 174.614C458.193 173.724 457.179 172.467 456.586 171.001C455.993 169.535 455.848 167.926 456.168 166.377C456.489 164.828 457.262 163.41 458.389 162.3V162.3C459.881 160.822 461.899 159.995 464 160H464.069C465.65 160.014 467.192 160.497 468.499 161.387C469.807 162.276 470.821 163.534 471.414 165C472.007 166.466 472.152 168.075 471.831 169.623C471.51 171.172 470.738 172.591 469.611 173.7H469.607Z" fill="black"/>
<path d="M127.992 152C119.505 151.966 111.352 155.304 105.326 161.281C99.3007 167.257 95.8961 175.383 95.8615 183.87C95.8269 192.357 99.1651 200.51 105.142 206.535C111.118 212.561 119.244 215.966 127.731 216H128.008C133.482 216.01 138.866 214.606 143.638 211.924C149.046 219.266 151.975 228.139 152 237.257V240C152 242.122 152.843 244.157 154.343 245.657C155.843 247.157 157.878 248 160 248C162.122 248 164.157 247.157 165.657 245.657C167.157 244.157 168 242.122 168 240V237.257C167.96 224.016 163.47 211.173 155.25 200.792C158.225 195.962 159.863 190.428 159.996 184.757C160.129 179.086 158.753 173.482 156.008 168.517C153.263 163.553 149.247 159.408 144.373 156.505C139.499 153.603 133.941 152.048 128.269 152H127.992ZM144 184.135C143.988 186.237 143.559 188.316 142.738 190.251C141.917 192.186 140.721 193.939 139.218 195.408C137.729 196.894 135.957 198.065 134.007 198.854C132.057 199.643 129.969 200.033 127.866 200C124.702 199.974 121.616 199.009 119 197.229C116.384 195.449 114.355 192.933 113.168 190C111.982 187.066 111.692 183.847 112.335 180.748C112.978 177.65 114.526 174.812 116.782 172.593C119.767 169.64 123.801 167.988 128 168H128.138C132.381 168.037 136.436 169.757 139.41 172.783C142.385 175.809 144.036 179.892 144 184.135V184.135Z" fill="black"/>
<path d="M58.8159 246.725L53.7079 278.314C53.5401 279.352 53.5783 280.412 53.8201 281.434C54.062 282.456 54.5029 283.421 55.1176 284.273C55.7324 285.125 56.5089 285.848 57.4029 286.399C58.2969 286.951 59.2908 287.322 60.3279 287.489L91.9169 292.602C92.954 292.77 94.014 292.732 95.0364 292.49C96.0588 292.248 97.0235 291.807 97.8755 291.193C98.7275 290.578 99.45 289.801 100.002 288.907C100.554 288.013 100.924 287.02 101.092 285.982L106.201 254.392C106.369 253.355 106.331 252.295 106.089 251.273C105.847 250.25 105.406 249.286 104.791 248.434C104.176 247.582 103.399 246.859 102.505 246.307C101.611 245.755 100.617 245.385 99.5799 245.217L67.9899 240.102C66.9526 239.935 65.8925 239.973 64.8701 240.215C63.8477 240.457 62.8829 240.899 62.031 241.514C61.1791 242.129 60.4567 242.905 59.9051 243.8C59.3534 244.694 58.9833 245.688 58.8159 246.725V246.725ZM73.3329 257.177L89.1329 259.731L86.5789 275.525L70.7789 272.972L73.3329 257.177Z" fill="black"/>
<path d="M86.723 101.994C86.4595 100.977 85.9983 100.022 85.3657 99.1828C84.733 98.344 83.9414 97.638 83.0359 97.1052C82.1304 96.5724 81.1289 96.2231 80.0884 96.0774C79.048 95.9316 77.989 95.9922 76.972 96.2558L45.994 104.278C43.94 104.81 42.1815 106.136 41.1052 107.964C40.0289 109.793 39.7231 111.974 40.255 114.028L48.277 145.006C48.5392 146.023 48.9996 146.979 49.6318 147.819C50.264 148.658 51.0557 149.365 51.9614 149.898C52.8671 150.431 53.8691 150.78 54.9099 150.925C55.9507 151.07 57.01 151.009 58.027 150.744L89.006 142.723C91.0599 142.191 92.8185 140.865 93.8948 139.036C94.971 137.208 95.2769 135.027 94.745 132.973L86.723 101.994ZM61.761 133.25L57.75 117.762L73.239 113.75L77.25 129.239L61.761 133.25Z" fill="black"/>
<path d="M446.182 373.141C444.694 371.628 442.667 370.768 440.545 370.75C438.424 370.732 436.382 371.558 434.869 373.046L412.052 395.482C411.303 396.218 410.706 397.095 410.296 398.063C409.886 399.03 409.67 400.069 409.662 401.119C409.653 402.17 409.851 403.212 410.245 404.186C410.639 405.16 411.221 406.047 411.958 406.796L434.394 429.612C435.13 430.361 436.007 430.958 436.974 431.369C437.941 431.78 438.98 431.996 440.03 432.005C441.081 432.014 442.123 431.817 443.097 431.423C444.071 431.03 444.959 430.448 445.708 429.712L468.524 407.276C469.273 406.539 469.871 405.663 470.281 404.696C470.692 403.729 470.908 402.69 470.917 401.639C470.927 400.589 470.729 399.547 470.335 398.572C469.942 397.598 469.36 396.711 468.624 395.962L446.182 373.141ZM440.193 412.69L428.975 401.281L440.383 390.064L451.6 401.472L440.193 412.69Z" fill="black"/>
<path d="M367.268 29.1393C365.781 27.6259 363.754 26.7652 361.632 26.7464C359.511 26.7277 357.468 27.5524 355.955 29.0393L333.138 51.4803C332.388 52.2166 331.791 53.0933 331.381 54.0604C330.97 55.0275 330.754 56.066 330.744 57.1166C330.735 58.1672 330.933 59.2094 331.326 60.1836C331.72 61.1578 332.301 62.0449 333.038 62.7943L355.475 85.6103C356.963 87.1231 358.99 87.9829 361.112 88.0007C363.233 88.0185 365.275 87.1929 366.788 85.7053L389.605 63.2693C390.354 62.533 390.952 61.6563 391.362 60.6892C391.773 59.7222 391.989 58.6837 391.998 57.633C392.008 56.5824 391.81 55.5403 391.416 54.5661C391.023 53.5919 390.441 52.7047 389.705 51.9553L367.268 29.1393ZM361.278 68.6883L350.06 57.2793L361.468 46.0623L372.687 57.4703L361.278 68.6883Z" fill="black"/>
<path d="M187.59 279.018C186.123 280.515 185.302 282.529 185.305 284.626C185.308 286.722 186.133 288.734 187.604 290.228C189.075 291.722 191.073 292.579 193.17 292.615C195.266 292.65 197.292 291.861 198.813 290.418L199.789 289.457C205.67 283.704 210.352 276.842 213.564 269.269C216.775 261.695 218.453 253.559 218.5 245.333C218.518 243.211 217.692 241.169 216.205 239.656C214.717 238.144 212.69 237.284 210.568 237.266H210.5C208.39 237.266 206.365 238.099 204.867 239.585C203.369 241.07 202.518 243.088 202.5 245.198C202.465 251.324 201.215 257.382 198.823 263.022C196.431 268.662 192.944 273.771 188.564 278.055L187.59 279.018Z" fill="black"/>
<path d="M266.216 355.558C268.315 355.56 270.33 354.733 271.824 353.258C277.538 347.608 285.256 344.449 293.292 344.469H293.556L300.183 344.524H300.251C302.373 344.533 304.411 343.698 305.917 342.204C307.424 340.71 308.275 338.679 308.284 336.557C308.293 334.435 307.458 332.397 305.964 330.89C304.47 329.384 302.439 328.533 300.317 328.524L293.69 328.469H293.29C281.056 328.438 269.307 333.248 260.608 341.85C259.477 342.964 258.703 344.388 258.384 345.943C258.066 347.498 258.216 349.113 258.818 350.581C259.419 352.05 260.444 353.307 261.762 354.192C263.08 355.076 264.631 355.549 266.218 355.55L266.216 355.558Z" fill="black"/>
<path d="M278.29 265.149C280.389 265.15 282.404 264.324 283.898 262.849L295.307 251.63C296.82 250.142 297.68 248.114 297.697 245.993C297.715 243.871 296.889 241.829 295.401 240.316C293.914 238.804 291.886 237.944 289.764 237.926C287.643 237.908 285.601 238.734 284.088 240.222L272.68 251.445C271.549 252.559 270.775 253.983 270.456 255.538C270.138 257.093 270.289 258.708 270.89 260.177C271.491 261.645 272.516 262.902 273.834 263.787C275.152 264.671 276.703 265.144 278.29 265.145V265.149Z" fill="black"/>
<path d="M221.248 321.239C223.347 321.241 225.363 320.414 226.856 318.939L233.531 312.375C235.456 316.476 238.499 319.95 242.312 322.398C246.125 324.845 250.551 326.165 255.081 326.207H255.288C259.227 326.207 263.105 325.238 266.581 323.385C270.057 321.532 273.023 318.852 275.218 315.582C277.413 312.311 278.769 308.551 279.167 304.632C279.565 300.713 278.993 296.757 277.5 293.112C276.007 289.467 273.64 286.245 270.608 283.731C267.576 281.217 263.971 279.488 260.113 278.697C256.255 277.905 252.261 278.075 248.483 279.192C244.706 280.31 241.262 282.339 238.455 285.102L215.638 307.538C214.507 308.652 213.733 310.077 213.414 311.631C213.096 313.186 213.247 314.801 213.848 316.27C214.449 317.738 215.474 318.995 216.792 319.88C218.11 320.765 219.661 321.237 221.248 321.238V321.239ZM255.348 294.212C257.47 294.221 259.501 295.072 260.995 296.579C262.489 298.085 263.324 300.123 263.315 302.245C263.306 304.367 262.455 306.398 260.948 307.892C259.442 309.386 257.404 310.221 255.282 310.212H255.213C254.162 310.208 253.123 309.997 252.154 309.591C251.185 309.185 250.305 308.592 249.566 307.846C248.826 307.1 248.24 306.216 247.842 305.243C247.444 304.271 247.241 303.23 247.245 302.18C247.25 301.129 247.461 300.09 247.867 299.121C248.273 298.152 248.866 297.272 249.612 296.532C250.357 295.792 251.242 295.207 252.214 294.809C253.186 294.41 254.227 294.208 255.278 294.212H255.348Z" fill="black"/>
<path d="M396.424 391.477C392.168 389.629 387.588 388.644 382.949 388.578C378.31 388.512 373.704 389.367 369.398 391.093L365.044 392.824C364.059 393.206 363.159 393.779 362.396 394.51C361.634 395.241 361.023 396.116 360.601 397.085C360.178 398.053 359.952 399.096 359.934 400.152C359.917 401.209 360.109 402.258 360.5 403.24C360.89 404.222 361.471 405.117 362.209 405.873C362.947 406.629 363.828 407.231 364.8 407.645C365.772 408.059 366.817 408.276 367.873 408.284C368.93 408.292 369.978 408.09 370.956 407.691L375.311 405.96C377.666 405.015 380.185 404.548 382.722 404.584C385.259 404.62 387.764 405.159 390.091 406.17C392.037 406.995 394.23 407.017 396.192 406.23C398.154 405.443 399.724 403.912 400.561 401.971C401.397 400.03 401.432 397.837 400.657 395.871C399.882 393.905 398.36 392.325 396.424 391.477V391.477Z" fill="black"/>
</svg>
