<?xml version="1.0" encoding="UTF-8" standalone="no"?> <svg id="Layer_1" data-name="Layer 1" xmlns="http://www.w3.org/2000/svg" viewBox="0 0 128 128"><defs><style>.cls-1{fill:#2e79bd;}.cls-2{fill:#2d3e50;}</style></defs><title>b</title><path class="cls-1" d="M71.10223,43.62482a14.20234,14.20234,0,0,1,.17146-1.89679,5.50539,5.50539,0,0,1,.177-.79945,4.38087,4.38087,0,0,0,.12055-.58628,3.11018,3.11018,0,0,0-.19851-1.72853,1.12507,1.12507,0,0,0-1.03514-.682.68717.68717,0,0,0-.26181.00128,2.61536,2.61536,0,0,0-1.18682.67448c-.08733.07185-.16907.139-.24116.19258-.33937.24936-.67518.50791-1.01216.76757-.30754.23656-.61566.47411-.92891.70584l-.09041.07243c-.29678.219-.5992.42954-.90284.6408l-.36014.25145c-.22295.15819-.44688.30772-.67111.4573-.05335.03578-.11811.07168-.18548.1095a1.6062,1.6062,0,0,0-.53345.40511.93945.93945,0,0,0-.09722.95736,1.79108,1.79108,0,0,0,1.28514.94473,2.31021,2.31021,0,0,0,1.42338-.36933c.1778-.10216.35216-.21428.52409-.32494a6.04989,6.04989,0,0,1,.7891-.45631,1.81266,1.81266,0,0,1,.19409-.07243,10.79122,10.79122,0,0,1,.002,3.19782c-.05033.53025-.09792,1.0313-.11147,1.51664-.0523,1.57389-.08035,3.29032-.08564,5.246-.00448.45276.00524.94892.01891,1.49244.00407.19682.00815.39446.0224.59943.01164.33669.02537.68862.04247,1.07837-.01437.01274-.03066.026-.0487.04067l-.0363.031a3.12865,3.12865,0,0,1-.84932.35321l-.1821.057c-.15389.05062-.34158.097-.54463.14725-.95788.23813-2.40511.59751-2.2596,1.91361a1.806,1.806,0,0,0,.75244,1.16279,1.359,1.359,0,0,0,1.57.03782c.07447-.03194.15-.06417.22772-.09466l.19386-.07866c.12113-.0498.2422-.09984.37887-.14755a14.41748,14.41748,0,0,1,1.40127-.49919c.00628-.008.03287.00559.0747.03194a1.93343,1.93343,0,0,1,.333.30132,1.53482,1.53482,0,0,0,.49232.39574,1.94826,1.94826,0,0,0,.85414.061,2.63585,2.63585,0,0,0,1.25407-.44909.87862.87862,0,0,0,.39173-.81557c-.01076-.0978-.03642-.22475-.0679-.3766l-.0249-.12c-.01978-.086-.03165-.15988-.04259-.2251L71.81721,57.62a4.088,4.088,0,0,1,1.37986-.49855l.29846-.07337a4.15613,4.15613,0,0,0,1.552-.61188c.2909-.209.27671-.66739.24052-.99378a1.77274,1.77274,0,0,0-.06557-.31022,2.868,2.868,0,0,0-.44985-.92251.58446.58446,0,0,0-.37823-.22277,1.35471,1.35471,0,0,0-.67856.17239c-.05515.02478-.10734.04852-.15342.06586q-.409.15333-.82.301a15.48605,15.48605,0,0,1-1.53072.48371c-.04282.01059-.07814.01838-.10694.024l-.02985-.11124-.01268-.0459a3.46575,3.46575,0,0,1-.073-.4388,2.06108,2.06108,0,0,1-.01513-.21713L70.957,54.0677c-.00355-.07051-.00867-.13876-.01367-.20462-.00524-.06691-.01041-.13149-.01263-.195-.00291-.06487-.00733-.12544-.0114-.18187-.00419-.05795-.00809-.11124-.01065-.18472-.00611-.05457-.00861-.1017-.01082-.14254-.00221-.04009-.00436-.07552-.00785-.10641a44.41353,44.41353,0,0,1,.14923-8.35916C71.06954,44.3331,71.08594,43.97756,71.10223,43.62482Z"/><path class="cls-1" d="M80.51388,46.67084q-.31827.03988-.66628.09937l-.27758.04765c-.58715.10147-1.193.208-1.79311.26094-.08035.00745-.18431.0078-.29974.00884-.52828.00454-1.2521.01111-1.48674.52531a1.38492,1.38492,0,0,0,.17658,1.51693,1.42368,1.42368,0,0,0,1.39621.15086,3.49129,3.49129,0,0,1,.35-.06976c.77322-.09338,1.53055-.179,2.28317-.1988.13376-.0032.25611-.01228.3656-.02036l.03514-.00244.00535.14423c.0153.42413.02932.81121.03363,1.15773l.00256.06691a.24821.24821,0,0,0,.00215.05149,7.27474,7.27474,0,0,0,.15266,1.92734c.1593.57139.62788.81819,1.39283.73359l.00663-.00076a1.02575,1.02575,0,0,0,.73982-.329.89736.89736,0,0,0,.10374-.71032c-.02374-.13591-.03956-.28078-.0587-.45392l-.008-.07051a18.02694,18.02694,0,0,1-.12456-2.35735c.01809-.13341.03747-.25093.07209-.40115.09844-.01158.18635-.02374.2518-.03677a2.40377,2.40377,0,0,0,.38765-.04352,9.9848,9.9848,0,0,1,1.67536-.1817c.12805-.00407.26065.00012.39452.004a3.37358,3.37358,0,0,0,.94555-.06022.91939.91939,0,0,0,.60839-.40063,1.25112,1.25112,0,0,0,.01484-.9548,1.22866,1.22866,0,0,0-.946-1.003,5.2629,5.2629,0,0,0-2.02828.069,7.326,7.326,0,0,1-1.25227.134c-.09326-.00145-.183-.00716-.25954-.013a13.17283,13.17283,0,0,1-.216-1.34332c-.0096-.08582-.01222-.22155-.01629-.38684-.023-.93705-.08407-1.88591-.54765-2.29073a.75161.75161,0,0,0-.59193-.18228,1.16589,1.16589,0,0,0-.84006.4541c-.48452.65406-.26274,1.83227-.08448,2.779a6.05276,6.05276,0,0,1,.13661.95875,2.9352,2.9352,0,0,1-.03084.39056Z"/><path class="cls-1" d="M97.51071,47.06147c-.27519.33349-.55876.66791-.85275.99488-.38306.4278-.78287.84612-1.18606,1.24151a17.84546,17.84546,0,0,1-2.53654,2.052c-.397.26129-.76053.50122-1.09594.74674a6.53362,6.53362,0,0,0-1.87881,2.09088l-.02868.055c-.01588.02921-.03177.05865-.04276.08262-.39976.82837-.64068,2.3691.41488,2.97743a1.14546,1.14546,0,0,0,.71678.15918,2.737,2.737,0,0,0,1.32529-.75186,4.47141,4.47141,0,0,1,.523-.40086,11.13179,11.13179,0,0,1,2.80673-1.16151,15.72272,15.72272,0,0,1,2.36148-.47312,27.31184,27.31184,0,0,1,3.61259-.1586c.08779.00128.17262.00623.25436.01129a1.30333,1.30333,0,0,0,1.23074-.41029,2.17927,2.17927,0,0,0,.451-1.504l-.00809-.17262a1.01164,1.01164,0,0,0-.34833-.74157.9529.9529,0,0,0-.74645-.10566c-.05417.00838-.10746.017-.16139.02048-.1547.01263-.30946.023-.46451.03374-.15726.01041-.31458.02112-.4673.03363-1.158.075-2.35583.15237-3.53014.28223l-.16884.01844c-.46375.05-.86089.10315-1.201.14906.41826-.32389.83675-.677,1.25035-1.05551.07284-.06278.14539-.13085.21876-.2002.05987-.05655.12072-.1138.18367-.16954l.00943-.00873c.33529-.32709.67757-.67291.99948-1.01885a2.22494,2.22494,0,0,0,.16709-.16983l.0921-.0985a25.5289,25.5289,0,0,0,2.26606-2.84909c.43757-.63219.81458-1.21649,1.15366-1.7873l.18466-.31243a7.02694,7.02694,0,0,0,1.35967-3.82966,4.22156,4.22156,0,0,0-.16424-.96771,7.17162,7.17162,0,0,0-3.5672-4.06907,6.08239,6.08239,0,0,0-1.71527-.57942,7.02591,7.02591,0,0,0-4.80255,1.00093,1.111,1.111,0,0,0-.16087.09664,15.07528,15.07528,0,0,0-1.88911,1.27828l-.05062.03939-.02688.05777a1.51016,1.51016,0,0,0-.07651,1.02659,2.01276,2.01276,0,0,0,.62171,1.05062,1.33741,1.33741,0,0,0,1.17687.36246l.06906-.01367.05329-.04614c.10257-.0896.21428-.18.326-.267a11.17323,11.17323,0,0,1,1.12788-.83593l.05835-.03811a.58735.58735,0,0,0,.0704-.04538,4.84986,4.84986,0,0,1,1.21794-.57948,2.69732,2.69732,0,0,1,.51111-.08122,3.3868,3.3868,0,0,1,2.79661,1.288,3.16112,3.16112,0,0,1,.57953,2.85269A14.6535,14.6535,0,0,1,97.51071,47.06147Z"/><path class="cls-2" d="M19.332,40.37906a6.4918,6.4918,0,0,0,12.74473,0l.991-5.10811A6.83825,6.83825,0,0,0,26.293,27.51116H25.11577A6.83835,6.83835,0,0,0,18.341,35.271Z"/><path class="cls-2" d="M48.74916,57.91254H49.142a3.489,3.489,0,0,0,3.11462-1.97621L59.00011,42.016a3.20675,3.20675,0,0,0-5.67443-2.98168L46.99246,50.233S33.442,48.44162,32.34984,48.303a1.65085,1.65085,0,0,0-.33512-.01152h-.01158c-.04044-.00582-.07511-.01158-.10979-.01734a1.58408,1.58408,0,0,0-.624.04044l-.16762-.052-3.259,3.259L26.086,53.26668l-.45648.46806-.1156.1156-.12707-.13294V53.677l-.02316.0231-.0231-.0231v.04044l-.12712.13294-.57209-.58366-1.75664-1.74512-3.25908-3.259-.16756.052a1.59213,1.59213,0,0,0-.6241-.04044c-1.19037.156-6.22918,1.19037-8.06669,1.57174a2.64914,2.64914,0,0,0-1.40994.76268,4.65506,4.65506,0,0,0-.68763.95928L4.22028,59.80794,2.40587,63.15941l-.20223.37561A3.30384,3.30384,0,0,0,2.169,66.56872L8.24786,78.611A3.07945,3.07945,0,0,0,11.79,80.20011a2.07017,2.07017,0,0,0,.40453-.13288,2.69755,2.69755,0,0,0,.57785-.3236v2.71981a12.33312,12.33312,0,0,0,24.66289.28753c.15354-6.63918.30667-13.81216.46183-19.32.00582-.17332.02892-1.02857.05783-2.0167,0-.06935.00576-.14446.00576-.21957.0462-1.49081.09245-3.17239.09245-3.207l7.44265-.052ZM12.77242,73.46825l-3.3111-7.88767,3.3111-4.39738Z"/><path class="cls-2" d="M121.11064,104.42106c-2.78509-1.38882-8.8968-3.44-8.8968-3.44V98.96318l.17012-.1284a5.83924,5.83924,0,0,0,2.217-3.71068l.03421-.21509h.16581a2.25546,2.25546,0,0,0,2.08756-1.40377,2.4561,2.4561,0,0,0,.30708-1.18979,2.25937,2.25937,0,0,0-.16052-.83675,1.16689,1.16689,0,0,0-.45258-.7276l-.56382-.34239.14016-.612a7.08672,7.08672,0,0,0-7.04045-8.55017c-.11235-.00209-.22359-.0032-.33384-.001-.11019-.00215-.22149-.001-.33384.001a7.08668,7.08668,0,0,0-7.04039,8.55017l.14016.612-.56388.34239a1.16739,1.16739,0,0,0-.45258.7276,2.26054,2.26054,0,0,0-.16052.83675,2.45615,2.45615,0,0,0,.30713,1.18979,2.25544,2.25544,0,0,0,2.08751,1.40377h.16581l.03427.21509a5.83892,5.83892,0,0,0,2.217,3.71068l.17012.1284v2.01792s-6.11166,2.05114-8.8968,3.44l-.02665.01536-.02665-.01536c-2.78515-1.38882-8.89686-3.44-8.89686-3.44V98.96318l.17018-.1284a5.83941,5.83941,0,0,0,2.217-3.71068l.03427-.21509h.16581a2.25544,2.25544,0,0,0,2.08751-1.40377,2.4561,2.4561,0,0,0,.30708-1.18979,2.25937,2.25937,0,0,0-.16052-.83675,1.16706,1.16706,0,0,0-.45253-.7276l-.56388-.34239.14016-.612A7.08671,7.08671,0,0,0,84.413,81.24654c-.11235-.00209-.22364-.0032-.3339-.001-.11019-.00215-.22143-.001-.33378.001a7.08662,7.08662,0,0,0-7.04039,8.55017l.1401.612-.56382.34239a1.16722,1.16722,0,0,0-.45264.7276,2.26049,2.26049,0,0,0-.16046.83675,2.4561,2.4561,0,0,0,.30708,1.18979A2.25556,2.25556,0,0,0,78.06268,94.909h.16587l.03421.21509a5.839,5.839,0,0,0,2.217,3.71068l.17012.1284v2.01792s-6.11166,2.05114-8.8968,3.44l-.0267.01536-.02665-.01536c-2.78515-1.38882-8.8968-3.44-8.8968-3.44V98.96318l.17012-.1284A5.83892,5.83892,0,0,0,65.19,95.1241l.03427-.21509h.16581a2.25544,2.25544,0,0,0,2.08751-1.40377,2.4561,2.4561,0,0,0,.30708-1.18979,2.26049,2.26049,0,0,0-.16046-.83675,1.16739,1.16739,0,0,0-.45258-.7276l-.56388-.34239.14016-.612a7.08668,7.08668,0,0,0-7.04039-8.55017c-.11235-.00209-.22364-.0032-.33384-.001-.11019-.00215-.22149-.001-.33384.001a7.08668,7.08668,0,0,0-7.04039,8.55017l.14016.612-.56388.34239a1.16689,1.16689,0,0,0-.45258.7276,2.25937,2.25937,0,0,0-.16052.83675,2.45674,2.45674,0,0,0,.30708,1.18979A2.25556,2.25556,0,0,0,53.35721,94.909h.16587l.03427.21509a5.83892,5.83892,0,0,0,2.217,3.71068l.17012.1284v2.01792s-6.11166,2.05114-8.8968,3.44a2.97212,2.97212,0,0,0-1.60176,2.157,64.71834,64.71834,0,0,0-.56173,7.48343h78.39a64.71832,64.71832,0,0,0-.56173-7.48343A2.97227,2.97227,0,0,0,121.11064,104.42106Z"/><path class="cls-1" d="M122.13915,13.93847H46.01684A4.04389,4.04389,0,0,0,41.97325,17.982v.75506a4.04712,4.04712,0,0,0,4.04358,4.04358V46.40124l4.93275-8.713a6.01058,6.01058,0,0,1,.6408-.91407V25.786H116.5656V69.12766H51.59039V60.13148a6.12563,6.12563,0,0,1-2.4242.51164l-3.14935.0199V71.31837a3.38461,3.38461,0,0,0,3.38778,3.38289h69.35165a3.38357,3.38357,0,0,0,3.38289-3.38289V22.78065a4.04712,4.04712,0,0,0,4.04358-4.04358V17.982A4.04389,4.04389,0,0,0,122.13915,13.93847Z"/></svg>