<?xml version="1.0" encoding="UTF-8" standalone="no"?> <svg width="512" height="512" viewBox="0 0 512 512" fill="none" xmlns="http://www.w3.org/2000/svg">
<path d="M416 296H360V280H416C418.121 279.998 420.154 279.154 421.654 277.654C423.154 276.154 423.998 274.121 424 272V224H440V272C439.993 278.363 437.462 284.463 432.963 288.963C428.463 293.462 422.363 295.993 416 296V296Z" fill="#CECEF2"/>
<path d="M464 175.999H460.669C463.322 169.912 464.418 163.26 463.858 156.643C463.298 150.027 461.1 143.654 457.462 138.099C453.824 132.544 448.86 127.983 443.018 124.826C437.176 121.669 430.641 120.016 424 120.016C417.36 120.016 410.825 121.669 404.983 124.826C399.141 127.983 394.177 132.544 390.539 138.099C386.901 143.654 384.702 150.027 384.142 156.643C383.583 163.26 384.679 169.912 387.332 175.999H376C369.635 175.999 363.53 178.527 359.029 183.028C354.529 187.529 352 193.633 352 199.999C352 206.364 354.529 212.468 359.029 216.969C363.53 221.47 369.635 223.999 376 223.999H464C470.365 223.999 476.47 221.47 480.971 216.969C485.471 212.468 488 206.364 488 199.999C488 193.633 485.471 187.529 480.971 183.028C476.47 178.527 470.365 175.999 464 175.999Z" fill="#846FC1"/>
<path d="M144 296H88C81.637 295.993 75.5368 293.462 71.0375 288.963C66.5382 284.463 64.0073 278.363 64 272V248H80V272C80.0024 274.121 80.8461 276.154 82.3458 277.654C83.8456 279.154 85.879 279.998 88 280H144V296Z" fill="#CECEF2"/>
<path d="M448.318 411.884L427.765 333.097C424.193 319.406 417.055 306.907 407.077 296.875C397.1 286.843 384.64 279.637 370.969 275.991L296.001 256H216.001L141.033 275.991C127.361 279.637 114.902 286.843 104.924 296.875C94.9465 306.907 87.808 319.406 84.2366 333.097L63.6833 411.884C61.8316 418.982 61.6314 426.41 63.0982 433.598C64.565 440.786 67.6598 447.541 72.1448 453.346C76.6297 459.152 82.3856 463.851 88.9702 467.085C95.5549 470.319 102.793 472 110.129 472H401.873C409.208 472 416.447 470.319 423.031 467.085C429.616 463.851 435.372 459.152 439.857 453.346C444.342 447.541 447.436 440.786 448.903 433.598C450.37 426.41 450.17 418.982 448.318 411.884V411.884Z" fill="#FCD2B1"/>
<path d="M427.765 333.097C424.194 319.406 417.055 306.907 407.078 296.875C397.1 286.843 384.64 279.637 370.969 275.991L296.001 256H216.001L141.033 275.991C127.362 279.637 114.902 286.843 104.924 296.875C94.9467 306.907 87.8082 319.406 84.2368 333.097L66.5039 401.073L120.001 424V464H392.001V424L447.354 408.185L427.765 333.097Z" fill="#12A08B"/>
<path d="M279.402 472.001H401.871C409.207 472.001 416.445 470.32 423.03 467.086C429.615 463.853 435.37 459.153 439.855 453.348C444.34 447.543 447.435 440.787 448.902 433.599C450.369 426.412 450.169 418.983 448.317 411.885L433.157 353.773C418.228 383.89 396.615 410.198 369.967 430.688C343.32 451.178 312.344 465.309 279.402 472.001V472.001Z" fill="#D6B397"/>
<path d="M376 296H136C131.757 296 127.687 297.686 124.686 300.686C121.686 303.687 120 307.757 120 312V472H392V312C392 307.757 390.314 303.687 387.314 300.686C384.313 297.686 380.243 296 376 296Z" fill="#DFDFDF"/>
<path d="M256 408C269.255 408 280 397.255 280 384C280 370.745 269.255 360 256 360C242.745 360 232 370.745 232 384C232 397.255 242.745 408 256 408Z" fill="#BEBEBE"/>
<path d="M115.314 147.314L76.6863 108.686C75.2006 107.201 73.4367 106.022 71.4955 105.218C69.5543 104.414 67.4737 104 65.3726 104H40C35.7565 104 31.6869 105.686 28.6863 108.686C25.6858 111.687 24 115.757 24 120V232C24 236.243 25.6858 240.313 28.6863 243.314C31.6869 246.314 35.7565 248 40 248H104C108.243 248 112.313 246.314 115.314 243.314C118.314 240.313 120 236.243 120 232V158.627C120 156.526 119.586 154.446 118.782 152.505C117.978 150.563 116.799 148.799 115.314 147.314Z" fill="#846FC1"/>
<path d="M96 176H48V192H96V176Z" fill="#A299DD"/>
<path d="M96 208H48V224H96V208Z" fill="#A299DD"/>
<path d="M216 472H392V312C391.996 310.767 391.849 309.539 391.563 308.34C388.439 352.771 368.585 394.366 336.005 424.737C303.425 455.109 260.541 471.998 216 472V472Z" fill="#BEBEBE"/>
<path d="M496 464H16V480H32V496H48V480H464V496H480V480H496V464Z" fill="#A2A2A2"/>
<path d="M115.314 147.314L76.6863 108.687C75.3302 107.338 73.7429 106.244 72 105.457V136.001C72 140.244 73.6858 144.314 76.6863 147.314C79.6869 150.315 83.7565 152.001 88 152.001H118.544C117.756 150.258 116.662 148.671 115.314 147.314Z" fill="#775FAD"/>
<path d="M439.675 195.93C438.934 194.253 438.795 192.371 439.282 190.603C439.769 188.835 440.852 187.29 442.348 186.23C445.418 184.086 448.086 181.418 450.23 178.348C451.29 176.852 452.835 175.769 454.603 175.282C456.371 174.795 458.253 174.934 459.93 175.675C461.019 176.153 461.988 176.867 462.767 177.766C463.546 178.664 464.115 179.725 464.433 180.87C464.752 182.016 464.811 183.218 464.607 184.39C464.404 185.562 463.942 186.673 463.256 187.644C460.083 192.155 456.155 196.083 451.644 199.256C450.673 199.942 449.561 200.404 448.39 200.607C447.218 200.811 446.016 200.752 444.87 200.433C443.725 200.115 442.664 199.546 441.766 198.767C440.867 197.988 440.153 197.019 439.675 195.93Z" fill="#775FAD"/>
<path d="M383.041 185.038C382.688 184.461 382.347 183.876 382.018 183.285C381.737 182.779 381.565 182.22 381.513 181.643C381.461 181.067 381.53 180.486 381.715 179.937C381.9 179.389 382.198 178.885 382.589 178.459C382.981 178.032 383.457 177.692 383.987 177.46L391.087 174.358C392.018 173.951 393.065 173.901 394.031 174.217C394.996 174.533 395.811 175.193 396.321 176.072L396.359 176.136C396.873 177.012 397.047 178.047 396.847 179.044C396.647 180.04 396.088 180.928 395.275 181.539L389.08 186.19C388.617 186.538 388.087 186.784 387.523 186.915C386.959 187.045 386.374 187.057 385.806 186.948C385.238 186.84 384.698 186.614 384.222 186.285C383.746 185.956 383.344 185.531 383.041 185.038Z" fill="#775FAD"/>
<path d="M472.685 177.625C463.733 191.832 451.325 203.538 436.621 211.648C421.916 219.758 405.396 224.007 388.604 223.998H464C469.599 223.998 475.022 222.041 479.33 218.465C483.637 214.889 486.56 209.919 487.59 204.416C488.621 198.913 487.695 193.223 484.973 188.33C482.251 183.438 477.904 179.651 472.685 177.625V177.625Z" fill="#705EA4"/>
<path d="M35.4043 247.321C36.8947 247.769 38.4426 247.997 39.999 247.998H103.999C108.242 247.998 112.312 246.312 115.313 243.312C118.313 240.311 119.999 236.241 119.999 231.998V158.625C119.995 158.006 119.956 157.388 119.88 156.773C118.75 179.408 109.65 200.914 94.1899 217.485C78.7298 234.056 57.9065 244.625 35.4043 247.321V247.321Z" fill="#705EA4"/>
<path d="M96.0007 223.999V215.465C93.338 218.484 90.4892 221.335 87.4707 223.999H96.0007Z" fill="#8A82BC"/>
<path d="M433.158 353.773C422.612 375.011 408.715 394.412 392 411.231V424.001L447.353 408.186L433.158 353.773Z" fill="#0F8876"/>
<path d="M216 208V256C228.083 263.25 241.909 267.079 256 267.079C270.091 267.079 283.917 263.25 296 256V256V208H216Z" fill="#F9C38F"/>
<path d="M280 208H216V256C216.589 256.353 217.184 256.69 217.779 257.026C221.143 243.057 229.109 230.626 240.395 221.733C251.681 212.84 265.631 208.003 280 208Z" fill="#D4A67A"/>
<path d="M349.962 37.9614C345.536 33.5351 340.281 30.024 334.498 27.6285C328.715 25.233 322.516 24 316.257 24H203.745C197.485 24 191.287 25.233 185.504 27.6285C179.72 30.024 174.466 33.5351 170.039 37.9614L167.973 40.0276C162.981 45.0199 159.16 51.0589 156.786 57.7081C154.413 64.3574 153.546 71.4509 154.248 78.4761L158.308 119.069C159.403 130.018 164.252 140.251 172.032 148.032L184.001 160H328.001L341.796 146.205C348.45 139.551 352.986 131.076 354.831 121.848L362.998 81.0151C364.537 73.3202 364.152 65.3644 361.878 57.8539C359.604 50.3433 355.511 43.5103 349.962 37.9614V37.9614Z" fill="#E28F2B"/>
<path d="M328 97.875V153.208C328 167.135 323.961 180.764 316.371 192.442C308.782 204.12 297.969 213.346 285.242 219.002H285.242C276.036 223.094 266.074 225.208 256 225.208C245.926 225.208 235.964 223.094 226.758 219.002H226.758C214.031 213.346 203.218 204.12 195.629 192.442C188.039 180.764 184 167.135 184 153.208V110.319C184 106.382 185.452 102.583 188.078 99.6487C190.704 96.7147 194.32 94.8521 198.233 94.4173L310.233 81.9729C312.47 81.7244 314.733 81.9504 316.876 82.6362C319.02 83.3221 320.994 84.4522 322.671 85.953C324.347 87.4537 325.689 89.2912 326.607 91.3455C327.525 93.3999 328 95.6248 328 97.875Z" fill="#FCD2B1"/>
<path d="M232 112H216V128H232V112Z" fill="#F4B571"/>
<path d="M296 112H280V128H296V112Z" fill="#F4B571"/>
<path d="M256 175.999H248.945C244.771 175.999 240.68 174.837 237.13 172.642C233.58 170.448 230.711 167.309 228.845 163.576C226.979 159.843 226.189 155.665 226.563 151.508C226.938 147.352 228.463 143.382 230.967 140.043L249.6 115.199L262.401 124.799L243.767 149.644C243.046 150.605 242.606 151.748 242.498 152.946C242.39 154.143 242.618 155.346 243.155 156.421C243.693 157.497 244.519 158.401 245.542 159.033C246.564 159.664 247.743 159.999 248.945 159.999H256V175.999Z" fill="#F4B571"/>
<path d="M256 203.752C249.206 203.758 242.503 202.184 236.422 199.154L243.578 184.844C247.438 186.762 251.69 187.76 256 187.76C260.31 187.76 264.562 186.762 268.422 184.844L275.578 199.154C269.497 202.184 262.794 203.758 256 203.752V203.752Z" fill="#F4B571"/>
<path d="M363.572 65.9805C357.52 94.2527 345.381 120.867 328 143.973V159.999L341.795 146.205C348.449 139.55 352.985 131.075 354.831 121.847L362.997 81.0146C363.984 76.0654 364.178 70.9907 363.572 65.9805V65.9805Z" fill="#C07A25"/>
<path d="M221.928 216.636C223.5 217.48 225.11 218.269 226.758 219.003L226.76 219.004C235.965 223.095 245.927 225.209 256 225.209C266.074 225.209 276.036 223.095 285.241 219.004L285.242 219.003C294.009 215.111 301.908 209.504 308.474 202.512C309.06 201.888 309.634 201.254 310.198 200.61C320.478 188.858 326.658 174.082 327.806 158.51C327.935 156.755 328 154.988 328 153.209V144.012C301.585 179.22 264.306 204.744 221.928 216.636V216.636Z" fill="#D6B397"/>
<path d="M256 203.755C262.794 203.761 269.497 202.187 275.578 199.157L273.089 194.18C267.492 197.643 261.718 200.832 255.768 203.748C255.845 203.748 255.922 203.755 256 203.755Z" fill="#D09A60"/>
</svg>
