<?xml version="1.0" encoding="UTF-8"?>
<svg  viewBox="0 0 52 52" version="1.1" xmlns="http://www.w3.org/2000/svg" xmlns:xlink="http://www.w3.org/1999/xlink">
    <!-- Generator: Sketch 49.2 (51160) - http://www.bohemiancoding.com/sketch -->
    <title>Linkedin</title>
    <desc>Created with Sketch.</desc>
    <defs></defs>
    <g id="Page-1" stroke="none" stroke-width="1" fill="none" fill-rule="evenodd">
        <g id="Social-Icons---Isolated" transform="translate(-386.000000, -277.000000)" fill="#007EBB">
            <path d="M438,329 L427.315625,329 L427.315625,310.802115 C427.315625,305.812754 425.419792,303.024532 421.470703,303.024532 C417.174609,303.024532 414.930078,305.92611 414.930078,310.802115 L414.930078,329 L404.633333,329 L404.633333,294.333333 L414.930078,294.333333 L414.930078,299.002928 C414.930078,299.002928 418.026042,293.274215 425.382552,293.274215 C432.735677,293.274215 438,297.76447 438,307.051212 L438,329 Z M392.349349,289.794013 C388.842057,289.794013 386,286.929657 386,283.397007 C386,279.864357 388.842057,277 392.349349,277 C395.856641,277 398.697005,279.864357 398.697005,283.397007 C398.697005,286.929657 395.856641,289.794013 392.349349,289.794013 Z M387.032552,329 L397.769401,329 L397.769401,294.333333 L387.032552,294.333333 L387.032552,329 Z" id="Linkedin"></path>
        </g>
    </g>
</svg>