<?xml version="1.0" encoding="UTF-8"?>
<svg viewBox="0 0 48 48" version="1.1" xmlns="http://www.w3.org/2000/svg" xmlns:xlink="http://www.w3.org/1999/xlink">
    <!-- Generator: Sketch 49.2 (51160) - http://www.bohemiancoding.com/sketch -->
    <title>Whatsapp</title>
    <desc>Created with Sketch.</desc>
    <defs></defs>
    <g id="Page-1" stroke="none" stroke-width="1" fill="none" fill-rule="evenodd">
        <g id="Social-Icons---Isolated" transform="translate(-388.000000, -391.000000)" fill="#01E675">
            <path d="M411.993033,391 L411.993033,391.000398 L412.006967,391.000398 C425.237748,391.000398 436,401.765685 436,415.000199 C436,428.234315 425.237748,439 412.006967,439 C407.126434,439 402.598605,437.546975 398.804449,435.035539 L389.579605,437.983798 L392.570026,429.066947 C389.692661,425.116025 388,420.248451 388,414.999801 C388,401.765287 398.762252,391 411.993033,391 Z M405.29285,403.190836 C404.827488,402.07628 404.474784,402.034071 403.769774,402.005401 C403.529728,401.991464 403.262214,401.977527 402.96564,401.977527 C402.04845,401.977527 401.089462,402.245514 400.511043,402.838033 C399.806033,403.557577 398.056843,405.23638 398.056843,408.679202 C398.056843,412.122023 400.567571,415.451756 400.905944,415.917648 C401.258648,416.382743 405.800808,423.55031 412.853297,426.471492 C418.368379,428.757149 420.00491,428.545307 421.260074,428.27732 C423.093658,427.882308 425.393002,426.527239 425.971421,424.891043 C426.54984,423.25405 426.54984,421.857171 426.380255,421.560912 C426.211068,421.264652 425.745308,421.095816 425.040298,420.742615 C424.335288,420.389811 420.90737,418.696673 420.25849,418.470894 C419.623543,418.231179 419.017259,418.315995 418.537963,418.99333 C417.860819,419.938653 417.198006,420.89831 416.661785,421.476494 C416.238619,421.928051 415.547144,421.984595 414.969123,421.744481 C414.193254,421.420348 412.021298,420.657798 409.340985,418.273388 C407.267356,416.42535 405.856938,414.125756 405.448104,413.434484 C405.038871,412.729275 405.405907,412.319529 405.729948,411.938852 C406.082653,411.501232 406.421026,411.191036 406.77373,410.781688 C407.126434,410.372738 407.323884,410.160897 407.549599,409.681068 C407.789645,409.215575 407.62006,408.735746 407.450874,408.382942 C407.281687,408.030139 405.871269,404.587317 405.29285,403.190836 Z" id="Whatsapp"></path>
        </g>
    </g>
</svg>