<?xml version="1.0" encoding="UTF-8" standalone="no"?> <svg id="Layer_1" data-name="Layer 1" xmlns="http://www.w3.org/2000/svg" viewBox="0 0 128 128"><defs><style>.cls-1{fill:#2d3e50;}.cls-2{fill:#1d75b8;}</style></defs><title>v</title><path class="cls-1" d="M82.87289,83.9591a7.82414,7.82414,0,0,0-8.31.60211l-5.9872,4.68343a2.81182,2.81182,0,0,1-2.86731.35916Q63.72666,88.73,61.73281,87.679A57.39135,57.39135,0,0,1,46.83248,76.91515,74.08485,74.08485,0,0,1,34.254,60.20019q-1.04644-1.99081-1.9248-3.97554a2.81184,2.81184,0,0,1,.35918-2.86729l4.68343-5.9872a7.8242,7.8242,0,0,0,.60211-8.31006C37.7677,38.67246,27.144,24.48971,26.876,24.20514a7.82078,7.82078,0,0,0-11.95573.763s-7.32853,9.01939-7.33265,9.02352c-13.50226,16.08807,2.74665,35.84248,13.791,47.8312,1.497,1.62489,5.36958,5.55928,9.27094,9.46065s7.83578,7.77393,9.46067,9.271c11.98874,11.0443,31.74313,27.29323,47.83535,13.791,0-.00413,9.01939-7.33265,9.01939-7.33265a7.81376,7.81376,0,0,0,.76294-11.9516C97.4433,94.78894,83.26055,84.1653,82.87289,83.9591Z"/><path class="cls-2" d="M103.111,9.31258A29.12266,29.12266,0,0,0,69.07073,27.80742c-.42416,1.18556-10.32332,26.55007-13.58661,34.9089a1.4544,1.4544,0,0,0,1.71823,1.937l20.06772-5.16712A29.08257,29.08257,0,1,0,103.111,9.31258Z"/></svg>